<?xml version="1.0" encoding="utf-8"?>
<!-- Generator: Adobe Illustrator 22.0.1, SVG Export Plug-In . SVG Version: 6.00 Build 0)  -->
<svg version="1.1" id="Layer_1" xmlns="http://www.w3.org/2000/svg" xmlns:xlink="http://www.w3.org/1999/xlink" x="0px" y="0px"
	 viewBox="0 0 100 100" style="enable-background:new 0 0 100 100;" xml:space="preserve">
<style type="text/css">
	.st0{fill:#FFFFFF;}
</style>
<path class="st0" d="M50,45.1c-7,0-12.7,5.7-12.7,12.7S42.9,70.6,50,70.6s12.7-5.7,12.7-12.7c0-1-0.1-1.9-0.3-2.8
	c9.3-10.8,23.7-27.7,31.5-37.4c2.6-3.3-0.3-6.4-3.7-3.7c-9.7,7.9-26.5,22.2-37.3,31.5C51.9,45.3,50.9,45.1,50,45.1z M53.6,21.3
	c0-2-1.6-3.7-3.7-3.7s-3.7,1.6-3.7,3.7s1.6,3.7,3.7,3.7S53.6,23.3,53.6,21.3z M75.5,50.5c0,2,1.6,3.7,3.7,3.7s3.7-1.6,3.7-3.7
	s-1.6-3.7-3.7-3.7S75.5,48.5,75.5,50.5z M35.3,21.3c-2,0-3.7,1.6-3.7,3.7s1.6,3.7,3.7,3.7S39,27,39,25S37.3,21.3,35.3,21.3z
	 M28,35.9c0-2-1.6-3.7-3.7-3.7s-3.7,1.6-3.7,3.7s1.6,3.7,3.7,3.7S28,37.9,28,35.9z M17.1,50.5c0,2,1.6,3.7,3.7,3.7s3.7-1.6,3.7-3.7
	s-1.6-3.7-3.7-3.7S17.1,48.5,17.1,50.5z M68.2,25c0-2-1.6-3.7-3.7-3.7c-2,0-3.7,1.6-3.7,3.7s1.6,3.7,3.7,3.7
	C66.6,28.6,68.2,27,68.2,25z M93,30.5l-7.8,10.3c0.9,3.1,1.4,6.4,1.4,9.7c0,20.2-16.4,36.5-36.5,36.5S13.4,70.7,13.4,50.6
	C13.4,30.4,29.8,14,50,14c7.5,0,14.5,2.3,20.3,6.2l9-6.9C71.2,6.9,61.1,3.1,50,3.1C23.7,3.1,2.5,24.3,2.5,50.6S23.7,98,50,98
	s47.5-21.3,47.5-47.5C97.4,43.4,95.8,36.6,93,30.5z"/>
</svg>
