<svg width="40" height="40" viewBox="0 0 40 40" fill="none" xmlns="http://www.w3.org/2000/svg">
<g clip-path="url(#clip0_125951_9312)">
<path d="M3.33431 20.8333C5.17523 20.8333 6.66759 19.3409 6.66759 17.5C6.66759 15.6591 5.17523 14.1667 3.33431 14.1667C1.4934 14.1667 0.0010376 15.6591 0.0010376 17.5C0.0010376 19.3409 1.4934 20.8333 3.33431 20.8333Z" fill="white"/>
<path d="M26.667 15.8334C26.207 15.8334 25.8336 16.2068 25.8336 16.6668C25.8336 17.1268 26.207 17.5001 26.667 17.5001C33.5034 17.5001 38.3333 23.7533 38.3333 24.9999C38.3333 25.4599 38.7067 25.8333 39.1666 25.8333C39.6266 25.8333 40 25.4599 40 24.9999C40 22.4166 34.0868 15.8334 26.667 15.8334Z" fill="white"/>
<path d="M39.1667 24.1666H31.6469C30.5336 24.1666 29.5719 23.45 29.2503 22.385L27.4103 16.2935L25.7438 12.9602C25.6038 12.6786 25.3154 12.5002 25.0004 12.5002H22.5005C22.2788 12.5002 22.0671 12.5886 21.9105 12.7436L18.8222 15.8335H5.83425C5.37427 15.8335 5.00092 16.2069 5.00092 16.6669V18.3335C5.00092 18.7401 5.29591 19.0884 5.69754 19.1551C8.75082 19.6651 13.949 20.9167 15.1423 22.145L15.1957 22.2484C16.7706 25.3316 18.7322 29.1665 22.5005 29.1665H34.1668C37.4917 29.1665 40 27.3749 40 25C40 24.5399 39.6267 24.1666 39.1667 24.1666Z" fill="white"/>
<path d="M4.93926 14.7284L3.27259 11.3952C3.07595 11.0018 2.60261 10.8302 2.19598 11.0068L0.504377 11.7352C0.107747 11.9068 -0.0939667 12.3535 0.0427486 12.7635L0.876087 15.2634C1.02444 15.7001 1.49771 15.9351 1.93106 15.7901C2.26941 15.6784 2.48105 15.3701 2.49441 15.0334L3.24103 15.0634L3.44766 15.4751C3.5943 15.7667 3.88929 15.9351 4.19264 15.9351C4.31764 15.9351 4.44428 15.9067 4.56599 15.8467C4.97755 15.6401 5.14418 15.1401 4.93926 14.7284Z" fill="white"/>
<path d="M4.54089 19.255C4.1309 19.0533 3.62927 19.2166 3.42256 19.6283L3.31756 19.835C3.24092 19.4533 2.90421 19.1666 2.50094 19.1666C2.04095 19.1666 1.6676 19.54 1.6676 20V21.6666C1.6676 22.1265 2.04095 22.4999 2.50094 22.4999H3.33428C3.64927 22.4999 3.93762 22.3215 4.07926 22.0399L4.9126 20.3733C5.11751 19.9617 4.95252 19.46 4.54089 19.255Z" fill="white"/>
<path d="M24.167 7.50027C23.707 7.50027 23.3337 7.87362 23.3337 8.33361V9.16695C23.3337 9.62694 23.707 10.0003 24.167 10.0003C24.627 10.0003 25.0004 9.62694 25.0004 9.16695V8.33361C25.0004 7.87362 24.627 7.50027 24.167 7.50027Z" fill="white"/>
<path d="M39.1666 9.16696H24.167C23.707 9.16696 23.3337 9.54031 23.3337 10.0003C23.3337 10.4603 23.707 10.8336 24.167 10.8336H39.1666C39.6266 10.8336 40 10.4603 40 10.0003C40 9.54031 39.6266 9.16696 39.1666 9.16696Z" fill="white"/>
<path d="M24.1671 9.16696H9.16744C8.70746 9.16696 8.33411 9.54031 8.33411 10.0003C8.33411 10.4603 8.70746 10.8336 9.16744 10.8336H24.1671C24.6271 10.8336 25.0004 10.4603 25.0004 10.0003C25.0004 9.54031 24.6271 9.16696 24.1671 9.16696Z" fill="white"/>
<path d="M27.5003 27.4998C27.0403 27.4998 26.667 27.8731 26.667 28.3331V31.6664C26.667 32.1264 27.0403 32.4997 27.5003 32.4997C27.9603 32.4997 28.3337 32.1264 28.3337 31.6664V28.3331C28.3337 27.8731 27.9603 27.4998 27.5003 27.4998Z" fill="white"/>
<path d="M34.1668 27.4998C33.7068 27.4998 33.3334 27.8731 33.3334 28.3331V31.6664C33.3334 32.1264 33.7068 32.4997 34.1668 32.4997C34.6268 32.4997 35.0001 32.1264 35.0001 31.6664V28.3331C35.0001 27.8731 34.6268 27.4998 34.1668 27.4998Z" fill="white"/>
<path d="M39.5734 29.2731C39.1718 29.0481 38.6634 29.1914 38.4384 29.5931C38.0434 30.298 36.4335 30.738 35.8335 30.833H19.1672C18.7072 30.833 18.3339 31.2064 18.3339 31.6664C18.3339 32.1264 18.7072 32.4997 19.1672 32.4997L35.9484 32.4913C36.2568 32.448 38.9883 32.023 39.8933 30.4064C40.1183 30.0047 39.975 29.4981 39.5734 29.2731Z" fill="white"/>
</g>
<defs>
<clipPath id="clip0_125951_9312">
<rect width="40" height="40" fill="white"/>
</clipPath>
</defs>
</svg>
