<?xml version="1.0" encoding="utf-8"?>
<!-- Generator: Adobe Illustrator 22.0.1, SVG Export Plug-In . SVG Version: 6.00 Build 0)  -->
<svg version="1.1" id="Layer_1" xmlns="http://www.w3.org/2000/svg" xmlns:xlink="http://www.w3.org/1999/xlink" x="0px" y="0px"
	 viewBox="0 0 100 100" style="enable-background:new 0 0 100 100;" xml:space="preserve">
<style type="text/css">
	.st0{fill:#FFFFFF;}
	
</style>
<g>
	<path class="st0" d="M86.6,51.6c-2.2,0-4,1.8-4,4v32.1H63.3V70.4c0-2.2-1.8-4-4-4H41.1c-2.2,0-4,1.8-4,4v17.3H17.1v-32
		c0-2.2-1.8-4-4-4s-4,1.8-4,4v36c0,2.2,1.8,4,4,4h28c2.2,0,4-1.8,4-4V74.4h10.1v17.3c0,2.2,1.8,4,4,4h27.3c2.2,0,4-1.8,4-4V55.6
		C90.6,53.4,88.8,51.6,86.6,51.6z"/>
	<path class="st0" d="M98.7,46.2c-0.1-1.1-0.6-2-1.4-2.7l-44.8-37c-1.4-1.2-3.6-1.2-5.1-0.1l-44.8,35c-1.8,1.4-2.1,3.9-0.7,5.7
		c1.4,1.8,3.9,2.1,5.7,0.7l42.3-33l42.3,35c0.7,0.6,1.6,0.9,2.6,0.9c1.2,0,2.3-0.5,3.1-1.5C98.5,48.3,98.8,47.2,98.7,46.2z"/>
</g>
</svg>
