<?xml version="1.0" encoding="utf-8"?>
<!-- Generator: Adobe Illustrator 22.0.1, SVG Export Plug-In . SVG Version: 6.00 Build 0)  -->
<svg version="1.1" id="Layer_1" xmlns="http://www.w3.org/2000/svg" xmlns:xlink="http://www.w3.org/1999/xlink" x="0px" y="0px"
	 viewBox="0 0 100 100" style="enable-background:new 0 0 100 100;" xml:space="preserve">
<style type="text/css">
	.st0{fill:#FFFFFF;}
</style>
<g>
	<g>
		<path class="st0" d="M94.6,28.5l-5-18.2c-0.6-2.5-2.8-4.2-5.4-4.2H16c-2.6,0-4.8,1.7-5.4,4.2l-5,18.2c-0.1,0.2-0.1,0.4-0.1,0.7
			c0,7.7,5.9,13.9,13.2,13.9c4.2,0,8-2.1,10.5-5.4c2.4,3.3,6.2,5.4,10.5,5.4s8-2.1,10.5-5.4c2.4,3.3,6.2,5.4,10.5,5.4
			s8-2.1,10.5-5.4c2.4,3.3,6.2,5.4,10.5,5.4c7.3,0,13.2-6.3,13.2-13.9C94.7,28.9,94.6,28.7,94.6,28.5z"/>
	</g>
</g>
<g>
	<g>
		<path class="st0" d="M83.9,95.8H56.6V81H43.5v14.9H16.3c-5.7,0-10.4-4.7-10.4-10.4v-38l6.7,3.1c4.6,2.1,9.7,1.6,13.6-1.2l2.7-1.9
			l2.7,1.9c4.6,3.2,11.2,3.2,15.7,0l2.7-1.9l2.7,1.9c4.6,3.2,11.2,3.2,15.7,0l2.7-1.9l2.7,1.9c3.9,2.7,9,3.3,13.6,1.2l6.7-3.1v38
			C94.2,91.2,89.6,95.8,83.9,95.8z M66.1,86.4h17.8c0.5,0,0.9-0.4,0.9-0.9V61.2c-1,0.1-2,0.2-3,0.2c-3.7,0-7.3-0.9-10.6-2.5
			c-6.6,3.3-14.6,3.3-21.1,0c-6.5,3.3-14.6,3.3-21.1,0c-3.3,1.7-6.9,2.5-10.6,2.5c-1,0-2-0.1-3-0.2v24.3c0,0.5,0.4,0.9,0.9,0.9h17.8
			V71.5h32V86.4z"/>
	</g>
</g>
</svg>
